<svg xmlns="http://www.w3.org/2000/svg" version="1.1" width="1085px" height="230px" style="shape-rendering:geometricPrecision; text-rendering:geometricPrecision; image-rendering:optimizeQuality; fill-rule:evenodd; clip-rule:evenodd" xmlns:xlink="http://www.w3.org/1999/xlink">
<g><path style="opacity:1" fill="#24af4d" d="M 727.5,82.5 C 726.152,79.491 723.819,77.8244 720.5,77.5C 720.34,75.8008 720.506,74.1341 721,72.5C 721.414,72.9574 721.914,73.2907 722.5,73.5C 723.424,71.6095 724.757,70.1095 726.5,69C 724.494,68.1513 723.828,66.9846 724.5,65.5C 731.089,66.877 737.755,67.877 744.5,68.5C 741.973,69.2136 739.473,69.8803 737,70.5C 736.833,70.8333 736.667,71.1667 736.5,71.5C 741.725,72.8635 746.725,72.3635 751.5,70C 765.474,68.8757 779.474,68.2091 793.5,68C 794.416,67.7216 795.082,67.2216 795.5,66.5C 800.932,65.3049 806.599,63.4716 812.5,61C 821.079,54.8609 823.912,46.6942 821,36.5C 818.057,29.6178 814.89,22.9511 811.5,16.5C 829.682,23.521 840.349,36.6877 843.5,56C 842.431,64.3916 838.764,71.3916 832.5,77C 825.274,81.7801 817.608,85.7801 809.5,89C 796.674,93.221 783.674,96.721 770.5,99.5C 763.201,99.6254 760.034,95.9588 761,88.5C 757.213,85.0861 752.713,83.2527 747.5,83C 740.842,82.5004 734.175,82.3337 727.5,82.5 Z"/></g>
<g><path style="opacity:1" fill="#26af4d" d="M 795.5,66.5 C 795.082,67.2216 794.416,67.7216 793.5,68C 779.474,68.2091 765.474,68.8757 751.5,70C 746.725,72.3635 741.725,72.8635 736.5,71.5C 736.667,71.1667 736.833,70.8333 737,70.5C 739.473,69.8803 741.973,69.2136 744.5,68.5C 737.755,67.877 731.089,66.877 724.5,65.5C 723.828,66.9846 724.494,68.1513 726.5,69C 724.757,70.1095 723.424,71.6095 722.5,73.5C 721.914,73.2907 721.414,72.9574 721,72.5C 720.506,74.1341 720.34,75.8008 720.5,77.5C 723.819,77.8244 726.152,79.491 727.5,82.5C 721.455,81.2882 717.955,77.6215 717,71.5C 716.687,75.9654 714.521,79.1321 710.5,81C 703.664,82.0669 696.831,82.9002 690,83.5C 685.088,83.0115 680.255,83.8449 675.5,86C 672.831,89.3356 671.331,93.1689 671,97.5C 668.923,98.9577 666.59,99.6243 664,99.5C 644.201,96.1776 625.367,90.0109 607.5,81C 594.704,73.9058 589.538,63.0725 592,48.5C 597.114,33.5501 606.947,22.8834 621.5,16.5C 622.583,17.365 622.749,18.365 622,19.5C 617.555,25.8904 614.055,32.7237 611.5,40C 611.44,53.3465 618.44,61.6798 632.5,65C 641.576,66.7862 650.743,67.6195 660,67.5C 682.891,66.2074 705.557,64.8741 728,63.5C 750.156,67.2159 772.656,68.2159 795.5,66.5 Z"/></g>
<g><path style="opacity:0.224" fill="#4ea168" d="M 271.5,121.5 C 270.041,121.567 268.708,121.234 267.5,120.5C 268.189,119.226 269.023,119.226 270,120.5C 270.499,115.511 270.666,110.511 270.5,105.5C 264.794,105.171 259.128,105.505 253.5,106.5C 253.863,107.183 254.196,107.85 254.5,108.5C 252.616,108.288 251.283,107.288 250.5,105.5C 257.468,104.503 264.468,104.17 271.5,104.5C 271.5,110.167 271.5,115.833 271.5,121.5 Z"/></g>
<g><path style="opacity:0.945" fill="#fefefe" d="M 142.5,105.5 C 175.5,105.5 208.5,105.5 241.5,105.5C 241.5,111.5 241.5,117.5 241.5,123.5C 228.496,123.333 215.496,123.5 202.5,124C 202.192,142.397 202.525,160.897 203.5,179.5C 196.197,180.497 188.863,180.831 181.5,180.5C 181.5,161.5 181.5,142.5 181.5,123.5C 168.5,123.5 155.5,123.5 142.5,123.5C 142.5,117.5 142.5,111.5 142.5,105.5 Z"/></g>
<g><path style="opacity:0.943" fill="#fefefe" d="M 279.5,105.5 C 306.502,105.333 333.502,105.5 360.5,106C 374.3,109.137 381.633,117.804 382.5,132C 381.068,143.431 375.068,151.431 364.5,156C 343.567,157.466 322.567,157.966 301.5,157.5C 301.5,165.167 301.5,172.833 301.5,180.5C 294.167,180.5 286.833,180.5 279.5,180.5C 279.5,155.5 279.5,130.5 279.5,105.5 Z M 301.5,123.5 C 319.503,123.333 337.503,123.5 355.5,124C 360.689,126.913 361.856,131.08 359,136.5C 358.097,137.701 356.931,138.535 355.5,139C 337.503,139.5 319.503,139.667 301.5,139.5C 301.5,134.167 301.5,128.833 301.5,123.5 Z"/></g>
<g><path style="opacity:0.936" fill="#fefefe" d="M 386.5,105.5 C 419.167,105.5 451.833,105.5 484.5,105.5C 484.5,111.5 484.5,117.5 484.5,123.5C 471.833,123.5 459.167,123.5 446.5,123.5C 446.5,142.5 446.5,161.5 446.5,180.5C 439.167,180.5 431.833,180.5 424.5,180.5C 424.5,161.5 424.5,142.5 424.5,123.5C 411.833,123.5 399.167,123.5 386.5,123.5C 386.5,117.5 386.5,111.5 386.5,105.5 Z"/></g>
<g><path style="opacity:0.941" fill="#fefefe" d="M 511.5,105.5 C 535.169,105.333 558.836,105.5 582.5,106C 592.103,108.603 597.936,114.769 600,124.5C 600.667,136.833 600.667,149.167 600,161.5C 597.86,171.64 591.694,177.806 581.5,180C 558.167,180.667 534.833,180.667 511.5,180C 501.778,177.945 495.611,172.112 493,162.5C 492.333,149.833 492.333,137.167 493,124.5C 495.348,114.32 501.515,107.987 511.5,105.5 Z M 519.5,123.5 C 538.26,123.026 556.927,123.526 575.5,125C 576.701,125.903 577.535,127.069 578,128.5C 578.167,132.167 578.333,135.833 578.5,139.5C 578.008,144.912 578.008,150.245 578.5,155.5C 577.702,158.797 575.702,160.964 572.5,162C 554.101,162.96 535.768,162.627 517.5,161C 516.54,159.581 515.707,158.081 515,156.5C 514.333,147.5 514.333,138.5 515,129.5C 516.277,127.253 517.777,125.253 519.5,123.5 Z"/></g>
<g><path style="opacity:0.95" fill="#fefefe" d="M 608.5,105.5 C 634.835,105.333 661.169,105.5 687.5,106C 706.168,111.343 712.334,123.176 706,141.5C 701.038,148.064 694.538,152.231 686.5,154C 694.352,162.351 702.018,170.851 709.5,179.5C 701.187,180.665 692.853,180.832 684.5,180C 672.609,165.7 660.609,151.534 648.5,137.5C 659.819,136.668 671.152,136.168 682.5,136C 688.661,132.509 688.994,128.509 683.5,124C 665.836,123.5 648.17,123.333 630.5,123.5C 630.5,142.5 630.5,161.5 630.5,180.5C 623.167,180.5 615.833,180.5 608.5,180.5C 608.5,155.5 608.5,130.5 608.5,105.5 Z"/></g>
<g><path style="opacity:0.943" fill="#fefefe" d="M 748.5,105.5 C 774.167,105.5 799.833,105.5 825.5,105.5C 825.5,130.5 825.5,155.5 825.5,180.5C 818.167,180.5 810.833,180.5 803.5,180.5C 803.5,161.5 803.5,142.5 803.5,123.5C 785.739,123.027 768.073,123.527 750.5,125C 748.522,127.497 748.022,130.331 749,133.5C 749.903,134.701 751.069,135.535 752.5,136C 763.515,136.168 774.515,136.668 785.5,137.5C 773.714,151.575 762.047,165.741 750.5,180C 742.147,180.832 733.813,180.665 725.5,179.5C 732.982,170.851 740.648,162.351 748.5,154C 728.997,148.516 722.83,136.349 730,117.5C 734.743,111.06 740.91,107.06 748.5,105.5 Z"/></g>
<g><path style="opacity:0.954" fill="#fefefe" d="M 853.5,105.5 C 877.502,105.333 901.502,105.5 925.5,106C 933.502,108.003 939.002,112.836 942,120.5C 942.667,135.5 942.667,150.5 942,165.5C 938.443,173.035 932.61,177.868 924.5,180C 901.167,180.667 877.833,180.667 854.5,180C 843.208,177.379 836.874,170.379 835.5,159C 835.237,146.346 835.737,133.513 837,120.5C 840.19,112.843 845.69,107.843 853.5,105.5 Z M 862.5,123.5 C 881.26,123.026 899.927,123.526 918.5,125C 919.46,126.419 920.293,127.919 921,129.5C 921.288,138.906 921.288,148.239 921,157.5C 919.457,159.378 917.624,160.878 915.5,162C 897.101,162.96 878.768,162.627 860.5,161C 859.54,159.581 858.707,158.081 858,156.5C 857.333,147.5 857.333,138.5 858,129.5C 858.599,126.746 860.099,124.746 862.5,123.5 Z"/></g>
<g><path style="opacity:1" fill="#2bad51" d="M 267.5,120.5 C 267.167,120.5 266.833,120.5 266.5,120.5C 262.5,116.5 258.5,112.5 254.5,108.5C 254.196,107.85 253.863,107.183 253.5,106.5C 259.128,105.505 264.794,105.171 270.5,105.5C 270.666,110.511 270.499,115.511 270,120.5C 269.023,119.226 268.189,119.226 267.5,120.5 Z"/></g>
<g><path style="opacity:0.931" fill="#fdfefd" d="M 266.5,120.5 C 266.833,120.5 267.167,120.5 267.5,120.5C 268.708,121.234 270.041,121.567 271.5,121.5C 271.5,141.167 271.5,160.833 271.5,180.5C 264.167,180.5 256.833,180.5 249.5,180.5C 249.5,160.833 249.5,141.167 249.5,121.5C 255.358,121.822 261.025,121.489 266.5,120.5 Z"/></g>
<g><path style="opacity:0.282" fill="#54b070" d="M 750.5,189.5 C 750.5,188.5 750.5,187.5 750.5,186.5C 727.475,185.844 704.809,186.51 682.5,188.5C 681.596,187.791 681.263,186.791 681.5,185.5C 705.502,185.333 729.502,185.5 753.5,186C 752.837,187.518 751.837,188.685 750.5,189.5 Z"/></g>
<g><path style="opacity:1" fill="#23af4d" d="M 750.5,189.5 C 746.096,196.293 740.763,202.293 734.5,207.5C 732.567,207.729 730.9,208.562 729.5,210C 722.167,210.333 714.833,210.667 707.5,211C 706.584,211.278 705.918,211.778 705.5,212.5C 696.514,205.846 688.847,197.846 682.5,188.5C 704.809,186.51 727.475,185.844 750.5,186.5C 750.5,187.5 750.5,188.5 750.5,189.5 Z"/></g>
<g><path style="opacity:0.961" fill="#369c56" d="M 734.5,207.5 C 733.358,209.433 731.692,210.933 729.5,212C 721.507,212.5 713.507,212.666 705.5,212.5C 705.918,211.778 706.584,211.278 707.5,211C 714.833,210.667 722.167,210.333 729.5,210C 730.9,208.562 732.567,207.729 734.5,207.5 Z"/></g>
</svg>